<?xml version="1.0" encoding="utf-8"?>
<!-- Generator: Adobe Illustrator 19.0.0, SVG Export Plug-In . SVG Version: 6.00 Build 0)  -->
<svg version="1.1" id="Calque_1" xmlns="http://www.w3.org/2000/svg" xmlns:xlink="http://www.w3.org/1999/xlink" x="0px" y="0px"
	 viewBox="0 0 880 153" style="enable-background:new 0 0 880 153;" xml:space="preserve">
<style type="text/css">
	.st0{clip-path:url(#SVGID_2_);}
</style>
<g>
	<defs>
		<rect id="SVGID_1_" width="880" height="153"/>
	</defs>
	<clipPath id="SVGID_2_">
		<use xlink:href="#SVGID_1_"  style="overflow:visible;"/>
	</clipPath>
	<g class="st0">
		<path d="M90,1c8,2.3,15.8,5,21.7,11.4c3.7,4,3.7,4.9-0.6,8.2c-3.2,2.4-6.4,4.7-9.5,7.3c-2.4,2-4,1.7-6.3-0.5
			c-5.3-5.2-12.7-6-18.8-2.5c-6,3.5-9,10.1-7.8,17c1.3,7.2,8,12.7,16.1,13.2c21.5,1.3,39.2,18.3,40.9,39.2
			c1.8,21.7-12.9,42-34.3,46.1c-17.8,3.4-32.7-2.2-43.9-16.8c-2.7-3.5-2.6-6.2,1.3-8.7c2.4-1.5,4.6-3.2,6.9-4.9
			c5.9-4.4,6.7-4.3,11.3,1.3c6.1,7.5,16.2,9.6,24.6,5.1c8.2-4.3,13-13.8,11.3-22c-1.9-8.9-10.5-17.1-19.4-17.6
			C63.4,76,49,61,47.3,44.8C45,22.9,56.2,7.7,77.9,1.9C78.3,1.8,78.6,1.3,79,1C82.7,1,86.3,1,90,1z"/>
		<path d="M615,154c-1.3-2.1-1.2-4.4-1.4-6.7c-0.4-5.7-3.3-8.3-9-8.4c-6.3-0.1-12.7-0.1-19,0c-3.2,0.1-5.1-0.8-5.1-4.3
			c0-3.3,1.7-4.5,4.7-4.2c2.8,0.2,4.8-0.6,5.8-3.5c0.9-2.6,1.6-4.7-0.4-7.4c-4.5-5.7-4.9-11.1-1.4-16.1c3.6-5.1,8.5-7.3,14.8-5.5
			c1.8,0.5,3.7,0.5,5-1.2c2.4-2.9,4.1-1.3,6.1,0.6c2.2,2,1.8,3.6-0.2,5.4c-1.5,1.4-2.2,2.8-1.7,5.2c1.4,6.5-1.8,12.2-8,14.9
			c-1.1,0.5-2.2,0.7-3.3,1.3c-1.8,1-2.6,2.7-2.3,4.6c0.4,2.1,2.3,1.5,3.7,1.5c3.9,0.2,7.6,0.7,11,2.8c6,3.6,9.2,11.7,7.4,18.3
			c-0.7,2.8-3.4,1.5-4.8,2.6C616.3,154,615.7,154,615,154z M600.4,116.1c3.1-0.8,5.3-2.4,5-5.9c-0.2-3.2-2.2-4.8-5.3-4.7
			c-3.4,0.1-5.3,2.5-5.1,5.6C595.3,114,597.5,115.7,600.4,116.1z"/>
		<path d="M410,1c1.3,2.3,1.7,4.8,1.7,7.6c-0.1,43.6,0,87.2,0,130.8c0,1,0,2,0,3c-0.1,2.4-1,4.5-3.8,4.3c-2.6-0.2-2.8-2.3-2.8-4.5
			c0-15.3,0-30.6,0-45.9c0-29.6,0-59.2,0-88.9c0-2.3-0.4-4.7,1.9-6.4C408,1,409,1,410,1z"/>
		<path d="M881,130c-2.7,3.5-4.6,7.6-9.6,9.1c-4.9,1.5-8.9,0.4-12.6-2.4c-1.3-1-3.7-2.4-2-4.3c1.6-1.9,3.7-4.4,6.7-2.6
			c2.5,1.5,4.7,2.3,7.3,0.3c1.7-1.3,1.9-3.2,1.4-5c-0.9-3.2-3.5-3.9-6.5-4.4c-4.9-0.8-8.2-4-9.2-8.7c-1-4.8,0.1-9.4,4.4-12.4
			c4.1-2.9,8.6-3.5,13.1-0.8c1.5,0.9,3.9,1.9,2.6,4c-1.2,2-2.8,5-6.2,3.4c-1.8-0.9-3.5-1.1-5,0.4c-2.2,2.1-1.4,5.5,1.9,5.9
			c6.9,0.8,11.1,4.6,13.9,10.6C881,125.3,881,127.7,881,130z"/>
		<path d="M250.1,70.7c0-19.8,0-39.6,0-59.5c0-6.3,0.9-6.9,7.2-7.5c6.4-0.6,10.6,1.9,14.2,7c16.7,24,33.6,47.9,50.5,71.7
			c1.6,2.2,2.8,6.4,6.4,5.3c3.4-1.1,1.6-5,1.7-7.6c0.1-22.8,0.1-45.6,0.1-68.5c0-6.6,0.9-7.5,7.3-7.8c13.3-0.7,13.4-0.6,13.4,12.7
			c0,37.2,0,74.3,0,111.5c0,3.4,1.6,7.9-3,9.6c-4.8,1.8-9.8,1.7-14.3-1.5c-1.9-1.4-3.3-3.3-4.6-5.2c-17.1-24.3-34.1-48.7-51.2-73.1
			c-1.2-1.7-2.1-4.4-4.7-3.5c-2.6,0.8-2.1,3.5-2.1,5.6c0,23.3,0,46.6,0,70c0,6.8-1.7,8.5-8.5,8.6c-1.5,0-3,0-4.5,0
			c-5.9-0.2-7.7-2-7.7-7.9C250.1,110.7,250.1,90.7,250.1,70.7z"/>
		<path d="M145.1,71.3c0-19.7,0-39.3,0-59c0-6.5,1.7-8.4,8.3-8.4c22.3-0.1,44.7-0.1,67,0c5.6,0,7.3,2,7.4,7.6
			c0.2,12.7-0.3,13.3-12.9,13.3c-13.5,0-27,0-40.5,0c-6.6,0-8.5,1.9-8.6,8.7c-0.1,5.5-0.1,11,0,16.5c0.2,6.3,2.3,8.3,8.5,8.4
			c12.7,0,25.3,0,38,0c6.5,0,8.3,1.9,8.4,8.2c0,1.5,0,3,0,4.5c-0.1,6.1-1.9,8-8.1,8.1c-12.3,0.1-24.7,0-37,0.1
			c-7.6,0-9.8,2.1-9.9,9.8c-0.1,6.7-0.2,13.3,0.1,20c0.3,7,2.2,8.7,9.2,8.7c14.8,0,29.7,0,44.5,0c6.8,0,8.2,1.5,8.2,8.3
			c0,1.7,0,3.3,0,5c-0.1,5.2-2,7.5-7.1,7.6c-23,0.1-46,0.1-69,0c-5.1,0-6.6-1.8-6.6-7.3C145.1,111.3,145.1,91.3,145.1,71.3z"/>
		<path d="M22.6,71c0,19.3,0,38.6,0,57.9c0,8.4-1.3,9.6-10.5,9.7c-8.6,0-10.4-1.5-10.4-9.4c0-38.5,0-76.9,0-115.4
			c0-9.4,0.5-9.9,9.8-9.9c10.8,0,11.1,0.3,11.1,11.2C22.6,33.7,22.6,52.3,22.6,71z"/>
		<path d="M485.9,111.3c0,7.2-0.2,14.3,0.1,21.5c0.2,4.3-0.8,6.3-5.7,6.3c-5.1,0-10.2,1.7-15.2-0.2c-1.1-0.4-2.2-0.7-3.2-1.3
			c-9-5.2-10.4-15.5-7.6-27.7c2.1-9.1,9.8-13.1,20-11.8c2.4,0.3,3.5-0.5,3.5-2.8c0.1-2.2,0.2-4.3,0-6.5c-0.2-3.3,0.8-4.7,4.4-4.7
			c3.9,0,3.7,2.2,3.7,4.8C485.8,96.3,485.9,103.8,485.9,111.3z M477.8,120.2C477.8,120.2,477.8,120.2,477.8,120.2c0-2.3,0.1-4.7,0-7
			c-0.2-5.5-2.6-8.2-7.2-8.3c-4.1-0.1-8.4,3.6-8.7,8c-0.3,3.8-0.3,7.7,0,11.5c0.5,4.9,4.9,7.8,10.4,7.8c5.9-0.1,5.5-4,5.4-8
			C477.7,122.9,477.8,121.6,477.8,120.2z"/>
		<path d="M739.2,118.5c0-12.2,4.3-18.4,14.3-20.8c9.8-2.3,20.2,6.5,19.8,16.4c-0.1,2.4-1.1,3.5-3.5,4c-6.1,1.4-12.2,3.1-18.3,4.8
			c-4.1,1.1-4.5,2.6-1.7,5.9c3.5,4.2,8.8,4.8,12.5,0.5c3-3.5,5.4-2,7.5,0.1c2.4,2.5-0.6,4.2-2,5.6c-5.1,4.5-11,6.3-17.5,3.7
			c-6.8-2.7-10.4-8-11.1-15.2C739,121.8,739.2,120.2,739.2,118.5z M756.9,104.9c-4.2-0.1-8.6,3.7-9,7.3c-0.2,1.9-0.1,3.4,2.6,2.6
			c3.3-1,6.7-1.7,10-2.7c1.2-0.3,2.9-0.4,3-2.1c0.1-1.4-1-2.5-2.1-3.1C759.7,106,758,105.4,756.9,104.9z"/>
		<path d="M453.2,44.4c0-12.3,5.3-19.4,15.5-20.8c9.6-1.3,19.2,7.3,18.7,16.9c-0.1,2.2-1.2,3.1-3.3,3.6c-6.1,1.5-12.2,3.2-18.2,4.9
			c-4.6,1.3-5,3-1.7,6.4c3.6,3.7,8.8,4,12.3-0.1c2.9-3.4,5-1.7,7.1,0c3,2.5-0.1,4.2-1.6,5.5c-5,4.6-10.8,6.5-17.4,4
			c-7.1-2.6-10.7-8.1-11.4-15.5C453.1,47.8,453.2,46.1,453.2,44.4z M471.1,31.2c-4.4,0-8.5,3.1-9.1,6.5c-0.5,2.5,0.1,4,3.1,3.1
			c3-0.9,6-1.8,9-2.6c1.4-0.4,3.5-0.4,3.7-1.8c0.2-1.8-1.4-3.2-3.2-4C473.2,31.9,471.8,31.5,471.1,31.2z"/>
		<path d="M605.1,44.6c0-12.5,5-19.3,15.3-20.9c9.6-1.5,19.1,6.9,18.8,16.6c-0.1,2.4-1.2,3.4-3.5,4c-5.9,1.4-11.8,3-17.7,4.6
			c-4.5,1.2-5,3.1-1.9,6.5c3.4,3.7,8.8,4,12.3,0c3.1-3.6,5.4-1.8,7.4,0.3c2.5,2.6-0.6,4.2-2.1,5.5c-5.2,4.7-11.4,6.2-18,3.5
			c-6.8-2.8-10.2-8.3-10.6-15.6C605.1,47.6,605.1,46.1,605.1,44.6z M622.7,31.2c-4.3,0.1-8,3.1-8.7,6.5c-0.5,2.5,0,4,3,3.1
			c2.9-0.9,5.7-1.7,8.6-2.5c1.5-0.4,3.7-0.1,3.8-2.3c0-1.8-1.6-2.9-3.1-3.6C624.9,31.7,623.4,31.5,622.7,31.2z"/>
		<path d="M628.5,118.3c0.2-11.9,4.5-18.3,14.1-20.5c9.7-2.3,20.2,6.1,20.3,16.1c0,2.3-0.7,3.6-3.2,4.1c-6.1,1.4-12.1,3.2-18.2,4.9
			c-4.2,1.1-4.8,2.9-2.1,6.2c3.2,3.9,9.3,4.4,12.6,0.3c2.8-3.5,5-2,7-0.1c2.8,2.5-0.1,4.1-1.6,5.6c-4.9,4.8-10.8,6.4-17.4,4
			c-6.3-2.3-10.1-6.8-10.9-13.5C628.8,123,628.7,120.6,628.5,118.3z M646.1,104.9c-3.9-0.2-8.6,3.8-9,7.4c-0.3,2.3,0.8,2.9,3,2.3
			c3.2-0.9,6.3-1.7,9.5-2.5c1.4-0.3,3.2-0.4,3.4-2.2c0.2-1.4-1.3-2.2-2.2-3.1C649.4,105.6,647.6,105.3,646.1,104.9z"/>
		<path d="M539.4,44.7c0-11.4,4.4-18.5,12.8-20.5c10.3-2.4,18.9,3.1,21.1,13.6c0.9,4.4,0.9,9,0,13.4c-1.8,9.6-9.4,15.4-18.9,14.6
			c-8.1-0.7-14.6-8.1-15.1-17.2C539.3,47.4,539.4,46,539.4,44.7z M565.1,45c0-1.8,0.1-3.7,0-5.5c-0.4-4.6-4.1-8.2-8.4-8.3
			c-4.2-0.1-8.3,3.4-8.7,8c-0.3,3.6-0.3,7.3,0,11c0.5,4.9,4.6,8.2,9.2,8c4.3-0.2,7.7-3.9,8-8.6C565.2,48,565.1,46.5,565.1,45z"/>
		<path d="M707.8,124.5c0,3.2-0.1,6.3,0,9.5c0.1,3.2-0.7,5-4.4,5c-3.9,0-4.2-2.3-4.2-5.2c0.1-6.2,0.1-12.3,0-18.5
			c-0.1-5.9-3.6-10.2-8.5-10.3c-5-0.2-8.8,4.3-8.8,10.6c-0.1,6.3-0.1,12.6,0,19c0,2.8-0.7,4.4-3.8,4.5c-3.1,0.1-4.7-1-4.6-4.3
			c0.1-6.8-0.2-13.7,0.1-20.5c0.5-9.8,8.2-17,17.5-16.9c9.2,0.1,16.4,7.8,16.7,17.7C707.9,118.1,707.8,121.3,707.8,124.5z"/>
		<path d="M784.1,112.6c0-3.5,0.1-7,0-10.5c-0.2-3,0.8-4.1,3.9-4.1c3.1,0,4.6,0.9,4.6,4.2c-0.1,7-0.1,14,0.1,21
			c0.2,4.7,3.1,7.2,7.5,7.9c4.3,0.6,7.3-1.6,9-5.5c0.8-1.7,0.9-3.5,0.9-5.4c0-6.2,0.1-12.3-0.1-18.5c-0.1-2.9,1.1-3.7,3.8-3.7
			c2.5,0.1,4.3,0.3,4.2,3.4c-0.1,8,0.2,16-0.4,23.9c-0.6,8-8.8,13.9-17.5,13.6c-8.5-0.3-15.5-6.9-16-15.4
			C784,120,784.2,116.3,784.1,112.6C784.2,112.6,784.1,112.6,784.1,112.6z"/>
		<path d="M572.9,124.4c0,3.5-0.1,7,0,10.5c0.1,2.7-1,3.9-3.8,4c-2.8,0.1-4.5-0.8-4.5-3.8c-0.1-7.2-0.1-14.3-0.3-21.5
			c-0.1-3.9-2.3-6.3-5.8-8c-3.3-1.5-5.9-0.4-8.3,1.6c-2.6,2.1-3.4,5.2-3.4,8.5c0,6.3-0.1,12.7,0,19c0.1,3-1,4.2-4,4.2
			c-3.1,0.1-4.2-1.3-4.1-4.2c0.1-7.3-0.1-14.7,0.3-21.9c0.6-8.8,8.4-15.6,17.1-15.5c8.6,0.1,16.1,7.4,16.6,16.2
			C573,117.1,572.8,120.8,572.9,124.4z"/>
		<path d="M505.9,44.6c0,1.8-0.2,3.7,0,5.5c0.5,3.8,2.7,6.6,6.2,7.7c3.4,1.1,6.9,0.4,9-2.6c2.5-3.6,4.5-1.6,6.6,0
			c2.9,2.2,0.4,3.8-0.9,5.2c-8.2,8.9-22.2,6.7-27.4-4.2c-4.9-10.2-1.8-24.8,6.4-30.1c6.3-4.1,15.7-3.1,20.6,2.1
			c1.2,1.2,2.7,2.7,0.8,4.1c-1.6,1.2-3.1,4.1-5.4,2.3c-3.7-3-7.2-4.7-11.7-2C506.8,34.5,505.9,37.3,505.9,44.6z"/>
		<path d="M584.2,37.5c0-7.6,0.1-15.3,0-22.9c0-3.1,0.8-4.5,4.2-4.5c3.3,0,4.3,1.3,4.3,4.5c-0.1,15.3-0.1,30.6,0,45.9
			c0,3-0.8,4.6-4.2,4.6c-3.3,0-4.4-1.4-4.3-4.5C584.3,52.8,584.2,45.1,584.2,37.5z"/>
		<path d="M831.1,123.6c0-4.3-0.4-8.7,0.1-12.9c0.8-7.5,8-13.4,15.5-13.4c2.3,0,3.5,1,3.4,3.2c0,1.8,0.7,3.8-2.4,4.6
			c-7.3,2-8.9,4.4-8.9,12c0,6-0.1,12,0,17.9c0.1,2.7-0.9,3.9-3.7,4c-2.9,0.1-4.4-0.9-4.4-3.9c0-3.8,0-7.6,0-11.5
			C830.9,123.6,831,123.6,831.1,123.6z"/>
		<path d="M518.1,117.9c0-5.5,0.1-10.9,0-16.4c-0.1-2.7,1-3.5,3.5-3.4c2.4,0.1,4.8-0.3,4.8,3.3c0,11.3,0,22.5,0,33.8
			c0,3.2-1.9,3.8-4.6,3.7c-2.8-0.1-3.7-1.5-3.7-4.1C518.2,129.2,518.1,123.5,518.1,117.9z"/>
		<path d="M726.9,118.4c0,5.5-0.1,11,0,16.5c0.1,2.7-1,3.9-3.8,4c-2.9,0.1-4.4-0.9-4.4-3.9c0-11.2,0.1-22.3,0-33.5
			c0-3.6,2.2-3.3,4.6-3.4c3-0.1,3.7,1.2,3.6,3.9C726.8,107.4,726.9,112.9,726.9,118.4z"/>
		<path d="M649.1,79.4c1.1,0.3,2.3,1.9,3.3,3.5c0.9,1.5-0.5,2.4-1.4,3.3c-1.8,1.7-3.6,3.4-5.5,5c-1.7,1.4-3.3,1.1-4.8-0.5
			c-1.5-1.6-1.7-3,0-4.7c1.6-1.6,3-3.5,4.5-5.3C645.9,79.9,646.7,79,649.1,79.4z"/>
		<path d="M468.9,18.2c-2.2,0-3-1.1-3.9-2.1c-1.1-1.2-0.9-2.3,0.1-3.5c1.5-1.8,3.1-3.5,4.5-5.3c2-2.6,3.8-2.5,6-0.2
			c2.1,2.2,2,3.9-0.3,5.8C473,14.8,470.7,16.7,468.9,18.2z"/>
		<path d="M500,99.1c1.4-2.7,6.9-5-0.2-6.7c-2.8-0.7-1.8-4-1.5-6.2c0.5-3.3,3.3-1.8,5.3-2c2.6-0.3,2.8,1.6,3,3.6
			C507.2,94.1,505.4,97.5,500,99.1z"/>
		<path d="M723,92.8c-3.5,0.5-4.3-1.5-4.4-4.5c0-2.8,0.6-4.4,3.9-4.2c2.8,0.1,4.4,0.7,4.4,3.9C726.8,90.8,726.7,93.1,723,92.8z"/>
		<path d="M518.2,88.2c-0.4-2.9,0.6-4.2,3.7-4.2c3.1,0,4.6,1,4.5,4.2c-0.1,2.9-0.8,4.7-4.3,4.6C518.9,92.8,517.8,91.3,518.2,88.2z"
			/>
	</g>
</g>
</svg>
